<?xml version="1.0" encoding="UTF-8"?>
<svg xmlns="http://www.w3.org/2000/svg" xmlns:xlink="http://www.w3.org/1999/xlink" width="50px" height="50px" viewBox="0 0 50 50" version="1.1">
<g id="surface1">
<path style=" stroke:none;fill-rule:nonzero;fill:rgb(100%,100%,100%);fill-opacity:1;" d="M 0 25 C 0 18.097656 2.441406 12.207031 7.324219 7.324219 C 12.207031 2.441406 18.097656 0 25 0 C 31.902344 0 37.792969 2.441406 42.675781 7.324219 C 47.558594 12.207031 50 18.097656 50 25 C 50 31.902344 47.558594 37.792969 42.675781 42.675781 C 37.792969 47.558594 31.902344 50 25 50 C 18.097656 50 12.207031 47.558594 7.324219 42.675781 C 2.441406 37.792969 0 31.902344 0 25 Z M 2.734375 25 C 2.734375 31.121094 4.914062 36.359375 9.277344 40.722656 C 13.640625 45.085938 18.878906 47.265625 25 47.265625 C 31.121094 47.265625 36.359375 45.085938 40.722656 40.722656 C 45.085938 36.359375 47.265625 31.121094 47.265625 25 C 47.265625 18.878906 45.085938 13.640625 40.722656 9.277344 C 36.359375 4.914062 31.121094 2.734375 25 2.734375 C 18.878906 2.734375 13.640625 4.914062 9.277344 9.277344 C 4.914062 13.640625 2.734375 18.878906 2.734375 25 Z M 9.765625 30.371094 C 9.636719 30.242188 9.636719 30.109375 9.765625 29.980469 C 10.027344 29.71875 10.351562 29.621094 10.742188 29.6875 C 11.132812 29.753906 11.359375 29.816406 11.425781 29.882812 C 11.882812 30.078125 12.386719 30.515625 12.9375 31.199219 C 13.492188 31.882812 13.933594 32.355469 14.257812 32.617188 C 15.820312 33.917969 17.414062 34.015625 19.042969 32.910156 C 19.171875 32.453125 19.382812 32.0625 19.675781 31.738281 C 19.96875 31.414062 20.246094 31.183594 20.507812 31.054688 C 20.769531 30.925781 21.222656 30.730469 21.875 30.46875 C 19.726562 30.273438 17.984375 29.898438 16.648438 29.34375 C 15.316406 28.792969 14.257812 28.09375 13.476562 27.246094 C 12.433594 26.074219 11.800781 24.542969 11.570312 22.65625 C 11.34375 20.769531 11.492188 19.042969 12.011719 17.480469 C 12.402344 16.503906 12.957031 15.625 13.671875 14.84375 C 13.152344 13.214844 13.25 11.359375 13.964844 9.277344 C 16.046875 9.40625 17.9375 10.125 19.628906 11.425781 C 22.882812 10.578125 26.269531 10.546875 29.785156 11.328125 C 30.242188 11.003906 30.941406 10.59375 31.882812 10.105469 C 32.828125 9.617188 34.015625 9.34375 35.449219 9.277344 C 35.710938 9.992188 35.886719 10.839844 35.984375 11.816406 C 36.082031 12.792969 36.035156 13.703125 35.839844 14.550781 C 37.335938 16.113281 38.117188 18.195312 38.183594 20.800781 C 38.183594 22.882812 37.824219 24.609375 37.109375 25.976562 C 36.394531 27.34375 35.125 28.484375 33.300781 29.394531 C 32.0625 29.980469 30.4375 30.339844 28.417969 30.46875 C 29.328125 30.925781 29.996094 31.394531 30.417969 31.882812 C 30.84375 32.371094 31.121094 33.136719 31.25 34.179688 L 31.25 37.253906 L 31.347656 40.234375 C 31.542969 40.558594 31.769531 40.835938 32.03125 41.0625 C 32.292969 41.292969 32.519531 41.453125 32.714844 41.550781 C 32.910156 41.648438 32.976562 41.796875 32.910156 41.992188 C 32.84375 42.1875 32.585938 42.285156 32.128906 42.285156 C 31.023438 42.285156 30.144531 41.894531 29.492188 41.113281 C 29.296875 40.789062 29.199219 40.398438 29.199219 39.941406 L 29.199219 35.253906 C 29.199219 34.734375 29.070312 34.359375 28.808594 34.128906 C 28.546875 33.902344 28.289062 33.757812 28.027344 33.691406 L 28.027344 39.84375 C 28.027344 40.949219 28.15625 41.667969 28.417969 41.992188 C 28.679688 42.316406 28.839844 42.644531 28.90625 42.96875 C 28.972656 43.035156 28.921875 43.082031 28.757812 43.113281 C 28.597656 43.148438 28.320312 43.097656 27.929688 42.96875 C 27.082031 42.773438 26.496094 42.332031 26.171875 41.648438 C 25.847656 40.964844 25.683594 40.234375 25.683594 39.453125 L 25.683594 33.398438 L 24.414062 33.398438 L 24.414062 39.453125 C 24.414062 40.234375 24.25 40.984375 23.925781 41.699219 C 23.46875 42.609375 22.625 43.097656 21.386719 43.164062 C 21.191406 43.097656 21.09375 43.035156 21.09375 42.96875 C 21.160156 42.902344 21.355469 42.578125 21.679688 41.992188 C 21.746094 41.863281 21.828125 41.601562 21.925781 41.210938 C 22.023438 40.820312 22.070312 40.363281 22.070312 39.84375 L 22.070312 33.691406 C 21.808594 33.757812 21.566406 33.902344 21.339844 34.128906 C 21.109375 34.359375 20.996094 34.734375 20.996094 35.253906 L 20.996094 39.941406 C 20.996094 40.398438 20.898438 40.789062 20.703125 41.113281 C 20.117188 41.894531 19.238281 42.285156 18.066406 42.285156 C 17.609375 42.285156 17.351562 42.1875 17.285156 41.992188 C 17.21875 41.863281 17.238281 41.75 17.335938 41.652344 C 17.433594 41.554688 17.578125 41.4375 17.773438 41.308594 C 17.96875 41.179688 18.097656 41.082031 18.164062 41.015625 C 18.425781 40.820312 18.621094 40.558594 18.75 40.234375 C 18.945312 39.972656 18.996094 39.289062 18.898438 38.183594 C 18.800781 37.078125 18.78125 36.359375 18.847656 36.035156 C 17.15625 36.621094 15.429688 36.328125 13.671875 35.15625 C 13.152344 34.636719 12.628906 33.886719 12.109375 32.910156 C 11.71875 32.195312 10.9375 31.347656 9.765625 30.371094 Z M 9.765625 30.371094 "/>
</g>
</svg>
