<?xml version="1.0" encoding="UTF-8"?>
<svg xmlns="http://www.w3.org/2000/svg" xmlns:xlink="http://www.w3.org/1999/xlink" width="80px" height="30px" viewBox="0 0 78 30" version="1.1">
<defs>
<clipPath id="clip1">
  <path d="M 50.46875 1.84375 L 68 1.84375 L 68 18.871094 L 50.46875 18.871094 Z M 50.46875 1.84375 "/>
</clipPath>
<clipPath id="clip2">
  <path d="M 66.378906 4.585938 C 63.953125 1.308594 58.816406 1.09375 54.902344 4.089844 C 50.992188 7.089844 49.785156 12.175781 52.210938 15.449219 C 54.632812 18.726562 59.773438 18.941406 63.6875 15.941406 C 67.597656 12.945312 68.804688 7.859375 66.378906 4.585938 Z M 66.378906 4.585938 "/>
</clipPath>
<clipPath id="clip3">
  <path d="M 42.226562 8.398438 L 62.453125 -7.105469 L 76.445312 11.78125 L 56.222656 27.28125 Z M 42.226562 8.398438 "/>
</clipPath>
<clipPath id="clip4">
  <path d="M 66.378906 4.585938 C 63.953125 1.308594 58.816406 1.09375 54.902344 4.089844 C 50.992188 7.089844 49.785156 12.175781 52.210938 15.449219 C 54.632812 18.726562 59.773438 18.941406 63.6875 15.941406 C 67.597656 12.945312 68.804688 7.859375 66.378906 4.585938 Z M 66.378906 4.585938 "/>
</clipPath>
<clipPath id="clip5">
  <path d="M 47.859375 9.65625 L 62.023438 -1.199219 L 70.8125 10.664062 L 56.648438 21.519531 Z M 47.859375 9.65625 "/>
</clipPath>
<clipPath id="clip6">
  <path d="M 50.46875 1.84375 L 68 1.84375 L 68 18.871094 L 50.46875 18.871094 Z M 50.46875 1.84375 "/>
</clipPath>
<clipPath id="clip7">
  <path d="M 66.378906 4.585938 C 63.953125 1.308594 58.816406 1.09375 54.902344 4.089844 C 50.992188 7.089844 49.785156 12.175781 52.210938 15.449219 C 54.632812 18.726562 59.773438 18.941406 63.6875 15.941406 C 67.597656 12.945312 68.804688 7.859375 66.378906 4.585938 Z M 66.378906 4.585938 "/>
</clipPath>
<clipPath id="clip8">
  <path d="M 42.226562 8.398438 L 62.453125 -7.105469 L 76.445312 11.78125 L 56.222656 27.28125 Z M 42.226562 8.398438 "/>
</clipPath>
<clipPath id="clip9">
  <path d="M 66.378906 4.585938 C 63.953125 1.308594 58.816406 1.09375 54.902344 4.089844 C 50.992188 7.089844 49.785156 12.175781 52.210938 15.449219 C 54.632812 18.726562 59.773438 18.941406 63.6875 15.941406 C 67.597656 12.945312 68.804688 7.859375 66.378906 4.585938 Z M 66.378906 4.585938 "/>
</clipPath>
<clipPath id="clip10">
  <path d="M 49.878906 16.785156 L 54.765625 -0.558594 L 68.804688 3.535156 L 63.917969 20.878906 Z M 49.878906 16.785156 "/>
</clipPath>
<clipPath id="clip11">
  <path d="M 50.46875 1.84375 L 68 1.84375 L 68 18.871094 L 50.46875 18.871094 Z M 50.46875 1.84375 "/>
</clipPath>
<clipPath id="clip12">
  <path d="M 66.378906 4.585938 C 63.953125 1.308594 58.816406 1.09375 54.902344 4.089844 C 50.992188 7.089844 49.785156 12.175781 52.210938 15.449219 C 54.632812 18.726562 59.773438 18.941406 63.6875 15.941406 C 67.597656 12.945312 68.804688 7.859375 66.378906 4.585938 Z M 66.378906 4.585938 "/>
</clipPath>
<clipPath id="clip13">
  <path d="M 42.226562 8.398438 L 62.453125 -7.105469 L 76.445312 11.78125 L 56.222656 27.28125 Z M 42.226562 8.398438 "/>
</clipPath>
<clipPath id="clip14">
  <path d="M 66.378906 4.585938 C 63.953125 1.308594 58.816406 1.09375 54.902344 4.089844 C 50.992188 7.089844 49.785156 12.175781 52.210938 15.449219 C 54.632812 18.726562 59.773438 18.941406 63.6875 15.941406 C 67.597656 12.945312 68.804688 7.859375 66.378906 4.585938 Z M 66.378906 4.585938 "/>
</clipPath>
<clipPath id="clip15">
  <path d="M 47.859375 9.65625 L 62.023438 -1.199219 L 70.8125 10.664062 L 56.648438 21.519531 Z M 47.859375 9.65625 "/>
</clipPath>
<clipPath id="clip16">
  <path d="M 50.46875 1.84375 L 68 1.84375 L 68 18.871094 L 50.46875 18.871094 Z M 50.46875 1.84375 "/>
</clipPath>
<clipPath id="clip17">
  <path d="M 66.378906 4.585938 C 63.953125 1.308594 58.816406 1.09375 54.902344 4.089844 C 50.992188 7.089844 49.785156 12.175781 52.210938 15.449219 C 54.632812 18.726562 59.773438 18.941406 63.6875 15.941406 C 67.597656 12.945312 68.804688 7.859375 66.378906 4.585938 Z M 66.378906 4.585938 "/>
</clipPath>
<clipPath id="clip18">
  <path d="M 42.226562 8.398438 L 62.453125 -7.105469 L 76.445312 11.78125 L 56.222656 27.28125 Z M 42.226562 8.398438 "/>
</clipPath>
<clipPath id="clip19">
  <path d="M 66.378906 4.585938 C 63.953125 1.308594 58.816406 1.09375 54.902344 4.089844 C 50.992188 7.089844 49.785156 12.175781 52.210938 15.449219 C 54.632812 18.726562 59.773438 18.941406 63.6875 15.941406 C 67.597656 12.945312 68.804688 7.859375 66.378906 4.585938 Z M 66.378906 4.585938 "/>
</clipPath>
<clipPath id="clip20">
  <path d="M 49.878906 16.785156 L 54.765625 -0.558594 L 68.804688 3.535156 L 63.917969 20.878906 Z M 49.878906 16.785156 "/>
</clipPath>
<clipPath id="clip21">
  <path d="M 50.46875 1.84375 L 68 1.84375 L 68 18.871094 L 50.46875 18.871094 Z M 50.46875 1.84375 "/>
</clipPath>
<clipPath id="clip22">
  <path d="M 66.378906 4.585938 C 63.953125 1.308594 58.816406 1.09375 54.902344 4.089844 C 50.992188 7.089844 49.785156 12.175781 52.210938 15.449219 C 54.632812 18.726562 59.773438 18.941406 63.6875 15.941406 C 67.597656 12.945312 68.804688 7.859375 66.378906 4.585938 Z M 66.378906 4.585938 "/>
</clipPath>
<clipPath id="clip23">
  <path d="M 42.226562 8.398438 L 62.453125 -7.105469 L 76.445312 11.78125 L 56.222656 27.28125 Z M 42.226562 8.398438 "/>
</clipPath>
<clipPath id="clip24">
  <path d="M 66.378906 4.585938 C 63.953125 1.308594 58.816406 1.09375 54.902344 4.089844 C 50.992188 7.089844 49.785156 12.175781 52.210938 15.449219 C 54.632812 18.726562 59.773438 18.941406 63.6875 15.941406 C 67.597656 12.945312 68.804688 7.859375 66.378906 4.585938 Z M 66.378906 4.585938 "/>
</clipPath>
<clipPath id="clip25">
  <path d="M 50.46875 1.84375 L 68 1.84375 L 68 18.871094 L 50.46875 18.871094 Z M 50.46875 1.84375 "/>
</clipPath>
<clipPath id="clip26">
  <path d="M 66.378906 4.585938 C 63.953125 1.308594 58.816406 1.09375 54.902344 4.089844 C 50.992188 7.089844 49.785156 12.175781 52.210938 15.449219 C 54.632812 18.726562 59.773438 18.941406 63.6875 15.941406 C 67.597656 12.945312 68.804688 7.859375 66.378906 4.585938 Z M 66.378906 4.585938 "/>
</clipPath>
<clipPath id="clip27">
  <path d="M 42.226562 8.398438 L 62.453125 -7.105469 L 76.445312 11.78125 L 56.222656 27.28125 Z M 42.226562 8.398438 "/>
</clipPath>
<clipPath id="clip28">
  <path d="M 55.058594 5 L 64.234375 5 L 64.234375 15 L 55.058594 15 Z M 55.058594 5 "/>
</clipPath>
<clipPath id="clip29">
  <path d="M 66.378906 4.585938 C 63.953125 1.308594 58.816406 1.09375 54.902344 4.089844 C 50.992188 7.089844 49.785156 12.175781 52.210938 15.449219 C 54.632812 18.726562 59.773438 18.941406 63.6875 15.941406 C 67.597656 12.945312 68.804688 7.859375 66.378906 4.585938 Z M 66.378906 4.585938 "/>
</clipPath>
<clipPath id="clip30">
  <path d="M 42.226562 8.398438 L 62.453125 -7.105469 L 76.445312 11.78125 L 56.222656 27.28125 Z M 42.226562 8.398438 "/>
</clipPath>
</defs>
<g id="surface1">
<path style=" stroke:none;fill-rule:nonzero;fill:rgb(100%,100%,100%);fill-opacity:1;" d="M 40.265625 10.035156 L 43.96875 9.792969 C 44.054688 10.410156 44.210938 10.863281 44.464844 11.195312 C 44.871094 11.710938 45.433594 11.96875 46.179688 11.96875 C 46.730469 11.96875 47.167969 11.84375 47.464844 11.570312 C 47.746094 11.355469 47.914062 11.007812 47.914062 10.652344 C 47.914062 10.308594 47.757812 9.980469 47.496094 9.761719 C 47.207031 9.503906 46.550781 9.25 45.507812 9.019531 C 43.804688 8.632812 42.578125 8.117188 41.863281 7.460938 C 41.140625 6.84375 40.734375 5.9375 40.761719 4.980469 C 40.761719 4.320312 40.960938 3.664062 41.324219 3.117188 C 41.75 2.5 42.320312 2.011719 43.015625 1.738281 C 43.761719 1.414062 44.800781 1.238281 46.117188 1.238281 C 47.714844 1.238281 48.941406 1.539062 49.789062 2.15625 C 50.632812 2.761719 51.140625 3.734375 51.296875 5.066406 L 47.632812 5.277344 C 47.539062 4.707031 47.339844 4.292969 47.011719 4.019531 C 46.6875 3.746094 46.265625 3.621094 45.722656 3.621094 C 45.265625 3.621094 44.933594 3.714844 44.707031 3.902344 C 44.492188 4.074219 44.351562 4.332031 44.363281 4.625 C 44.363281 4.835938 44.476562 5.035156 44.644531 5.167969 C 44.832031 5.335938 45.265625 5.496094 45.960938 5.640625 C 47.664062 6.007812 48.875 6.382812 49.621094 6.769531 C 50.363281 7.15625 50.902344 7.628906 51.222656 8.183594 C 51.5625 8.757812 51.730469 9.417969 51.71875 10.097656 C 51.71875 10.894531 51.492188 11.699219 51.042969 12.371094 C 50.578125 13.070312 49.925781 13.617188 49.167969 13.949219 C 48.367188 14.304688 47.351562 14.492188 46.140625 14.492188 C 44 14.492188 42.519531 14.074219 41.6875 13.226562 C 40.859375 12.386719 40.367188 11.324219 40.265625 10.035156 Z M 0.957031 14.273438 L 0.957031 1.46875 L 7.449219 1.46875 C 8.652344 1.46875 9.578125 1.570312 10.210938 1.78125 C 10.832031 1.988281 11.382812 2.398438 11.746094 2.960938 C 12.15625 3.578125 12.355469 4.292969 12.335938 5.035156 C 12.378906 6.296875 11.746094 7.5 10.664062 8.128906 C 10.238281 8.371094 9.773438 8.546875 9.296875 8.632812 C 9.648438 8.730469 10 8.90625 10.3125 9.105469 C 10.550781 9.304688 10.746094 9.535156 10.933594 9.777344 C 11.140625 10.023438 11.328125 10.296875 11.476562 10.578125 L 13.363281 14.292969 L 8.945312 14.292969 L 6.859375 10.351562 C 6.589844 9.847656 6.367188 9.523438 6.152344 9.363281 C 5.871094 9.164062 5.539062 9.0625 5.199219 9.0625 L 4.855469 9.0625 L 4.855469 14.261719 L 0.957031 14.261719 Z M 4.855469 6.65625 L 6.507812 6.65625 C 6.859375 6.625 7.199219 6.570312 7.535156 6.484375 C 7.789062 6.4375 8.015625 6.296875 8.167969 6.082031 C 8.550781 5.566406 8.496094 4.835938 8.03125 4.394531 C 7.773438 4.175781 7.28125 4.0625 6.578125 4.0625 L 4.855469 4.0625 Z M 0.0703125 25.25 L 3.777344 25.007812 C 3.859375 25.625 4.015625 26.082031 4.265625 26.410156 C 4.660156 26.925781 5.238281 27.195312 5.984375 27.195312 C 6.535156 27.195312 6.972656 27.070312 7.269531 26.796875 C 7.550781 26.566406 7.71875 26.242188 7.71875 25.878906 C 7.71875 25.539062 7.5625 25.207031 7.292969 24.996094 C 7.015625 24.734375 6.351562 24.476562 5.300781 24.246094 C 3.589844 23.859375 2.367188 23.34375 1.648438 22.683594 C 0.933594 22.070312 0.519531 21.167969 0.550781 20.207031 C 0.550781 19.546875 0.746094 18.886719 1.109375 18.34375 C 1.535156 17.726562 2.113281 17.242188 2.800781 16.972656 C 3.546875 16.640625 4.59375 16.46875 5.902344 16.46875 C 7.507812 16.46875 8.734375 16.773438 9.578125 17.382812 C 10.425781 18 10.914062 18.960938 11.070312 20.289062 L 7.40625 20.507812 C 7.3125 19.933594 7.117188 19.515625 6.785156 19.246094 C 6.480469 18.972656 6.039062 18.847656 5.496094 18.863281 C 5.042969 18.863281 4.707031 18.960938 4.480469 19.160156 C 4.253906 19.335938 4.128906 19.589844 4.140625 19.878906 C 4.140625 20.089844 4.253906 20.289062 4.421875 20.425781 C 4.605469 20.59375 5.042969 20.75 5.734375 20.894531 C 7.4375 21.269531 8.652344 21.640625 9.398438 22.027344 C 10.144531 22.414062 10.675781 22.886719 11 23.449219 C 11.339844 24.015625 11.507812 24.675781 11.507812 25.335938 C 11.507812 26.136719 11.265625 26.925781 10.832031 27.601562 C 10.367188 28.304688 9.71875 28.847656 8.957031 29.171875 C 8.15625 29.535156 7.140625 29.71875 5.933594 29.71875 C 3.789062 29.71875 2.3125 29.308594 1.480469 28.460938 C 0.652344 27.601562 0.183594 26.539062 0.0703125 25.25 Z M 0.0703125 25.25 "/>
<path style=" stroke:none;fill-rule:nonzero;fill:rgb(100%,100%,100%);fill-opacity:1;" d="M 18.800781 24.246094 L 22.210938 25.292969 C 22.027344 26.167969 21.652344 26.996094 21.125 27.730469 C 20.648438 28.375 20.015625 28.878906 19.296875 29.203125 C 18.5625 29.535156 17.636719 29.707031 16.507812 29.707031 C 15.140625 29.707031 14.015625 29.507812 13.15625 29.101562 C 12.28125 28.703125 11.535156 27.988281 10.902344 26.964844 C 10.269531 25.949219 9.960938 24.652344 9.960938 23.058594 C 9.960938 20.9375 10.507812 19.304688 11.621094 18.175781 C 12.730469 17.042969 14.296875 16.46875 16.320312 16.46875 C 17.917969 16.46875 19.152344 16.796875 20.074219 17.441406 C 20.96875 18.101562 21.652344 19.105469 22.097656 20.449219 L 18.664062 21.222656 C 18.578125 20.925781 18.449219 20.625 18.28125 20.363281 C 18.070312 20.066406 17.804688 19.835938 17.480469 19.660156 C 17.15625 19.492188 16.789062 19.421875 16.421875 19.421875 C 15.53125 19.421875 14.859375 19.777344 14.390625 20.507812 C 14.046875 21.039062 13.859375 21.882812 13.859375 23.03125 C 13.859375 24.445312 14.070312 25.425781 14.492188 25.949219 C 14.917969 26.484375 15.507812 26.742188 16.28125 26.742188 C 17.027344 26.742188 17.59375 26.523438 17.96875 26.109375 C 18.351562 25.667969 18.632812 25.050781 18.800781 24.246094 Z M 26.757812 16.679688 L 30.648438 16.679688 L 30.648438 21.167969 L 34.902344 21.167969 L 34.902344 16.679688 L 38.816406 16.679688 L 38.816406 29.488281 L 34.902344 29.488281 L 34.902344 24.304688 L 30.648438 24.304688 L 30.648438 29.488281 L 26.757812 29.488281 Z M 26.757812 16.679688 "/>
<path style=" stroke:none;fill-rule:nonzero;fill:rgb(100%,100%,100%);fill-opacity:1;" d="M 38.28125 23.085938 C 38.28125 21 38.855469 19.359375 39.996094 18.203125 C 41.140625 17.042969 42.746094 16.453125 44.789062 16.453125 C 46.886719 16.453125 48.492188 17.027344 49.632812 18.175781 C 50.773438 19.316406 51.335938 20.925781 51.335938 22.988281 C 51.335938 24.492188 51.085938 25.707031 50.589844 26.671875 C 50.113281 27.613281 49.367188 28.386719 48.453125 28.902344 C 47.507812 29.433594 46.335938 29.707031 44.945312 29.707031 C 43.523438 29.707031 42.351562 29.476562 41.417969 29.015625 C 40.464844 28.53125 39.675781 27.769531 39.15625 26.839844 C 38.574219 25.835938 38.28125 24.589844 38.28125 23.085938 Z M 42.167969 23.101562 C 42.167969 24.390625 42.410156 25.320312 42.871094 25.894531 C 43.335938 26.453125 43.988281 26.742188 44.800781 26.742188 C 45.632812 26.742188 46.28125 26.472656 46.75 25.910156 C 47.207031 25.351562 47.4375 24.359375 47.4375 22.925781 C 47.4375 21.722656 47.195312 20.835938 46.71875 20.289062 C 46.242188 19.734375 45.589844 19.460938 44.777344 19.460938 C 44.054688 19.433594 43.367188 19.746094 42.890625 20.308594 C 42.410156 20.867188 42.167969 21.796875 42.167969 23.101562 Z M 55.320312 23.085938 C 55.320312 21 55.902344 19.359375 57.042969 18.203125 C 58.183594 17.042969 59.789062 16.453125 61.828125 16.453125 C 63.929688 16.453125 65.550781 17.027344 66.671875 18.175781 C 67.800781 19.316406 68.382812 20.925781 68.382812 22.988281 C 68.382812 24.492188 68.125 25.707031 67.632812 26.671875 C 67.15625 27.613281 66.410156 28.386719 65.488281 28.902344 C 64.546875 29.433594 63.382812 29.707031 61.984375 29.707031 C 60.5625 29.707031 59.394531 29.476562 58.464844 29.015625 C 57.507812 28.53125 56.71875 27.769531 56.195312 26.839844 C 55.621094 25.835938 55.320312 24.589844 55.320312 23.085938 Z M 59.210938 23.101562 C 59.210938 24.390625 59.449219 25.320312 59.914062 25.894531 C 60.382812 26.453125 61.027344 26.742188 61.84375 26.742188 C 62.675781 26.742188 63.320312 26.472656 63.789062 25.910156 C 64.253906 25.351562 64.480469 24.359375 64.480469 22.925781 C 64.480469 21.722656 64.242188 20.835938 63.757812 20.289062 C 63.28125 19.734375 62.632812 19.460938 61.816406 19.460938 C 61.097656 19.433594 60.394531 19.746094 59.929688 20.308594 C 59.449219 20.867188 59.210938 21.796875 59.210938 23.101562 Z M 59.210938 23.101562 "/>
<path style=" stroke:none;fill-rule:nonzero;fill:rgb(100%,100%,100%);fill-opacity:1;" d="M 67.96875 16.679688 L 71.859375 16.679688 L 71.859375 26.335938 L 77.929688 26.335938 L 77.929688 29.488281 L 67.957031 29.488281 L 67.957031 16.679688 Z M 67.96875 16.679688 "/>
<path style=" stroke:none;fill-rule:nonzero;fill:rgb(100%,100%,100%);fill-opacity:1;" d="M 66.378906 4.585938 C 63.953125 1.308594 58.816406 1.09375 54.902344 4.089844 C 50.992188 7.089844 49.785156 12.175781 52.210938 15.449219 C 54.632812 18.726562 59.773438 18.941406 63.6875 15.941406 C 67.597656 12.945312 68.804688 7.859375 66.378906 4.585938 Z M 66.378906 4.585938 "/>
<g clip-path="url(#clip1)" clip-rule="nonzero">
<g clip-path="url(#clip2)" clip-rule="nonzero">
<path style=" stroke:none;fill-rule:nonzero;fill:rgb(100%,100%,100%);fill-opacity:1;" d="M 42.226562 8.398438 L 62.453125 -7.105469 L 76.445312 11.78125 L 56.222656 27.28125 Z M 42.226562 8.398438 "/>
<g clip-path="url(#clip3)" clip-rule="nonzero">
<path style=" stroke:none;fill-rule:nonzero;fill:rgb(100%,100%,100%);fill-opacity:1;" d="M 66.378906 4.585938 C 63.953125 1.308594 58.816406 1.09375 54.902344 4.089844 C 50.992188 7.089844 49.785156 12.175781 52.210938 15.449219 C 54.632812 18.726562 59.773438 18.941406 63.6875 15.941406 C 67.597656 12.945312 68.804688 7.859375 66.378906 4.585938 Z M 66.378906 4.585938 "/>
<g clip-path="url(#clip4)" clip-rule="nonzero">
<path style=" stroke:none;fill-rule:nonzero;fill:rgb(100%,100%,100%);fill-opacity:1;" d="M 47.859375 9.65625 L 62.023438 -1.199219 L 70.8125 10.664062 L 56.648438 21.519531 Z M 47.859375 9.65625 "/>
<g clip-path="url(#clip5)" clip-rule="nonzero">
<path style="fill-rule:nonzero;fill:rgb(0%,0%,0%);fill-opacity:1;stroke-width:4;stroke-linecap:butt;stroke-linejoin:miter;stroke:rgb(0%,0%,0%);stroke-opacity:1;stroke-miterlimit:10;" d="M 483.479938 67.886538 C 483.492707 39.251268 455.268362 16.104105 420.4881 16.081003 C 385.713579 16.096368 357.503879 39.290539 357.50752 67.904033 C 357.472601 96.522612 385.719096 119.686466 420.515767 119.687793 C 455.273879 119.694203 483.483579 96.500032 483.479938 67.886538 Z M 483.479938 67.886538 " transform="matrix(0.112481,-0.0862195,0.0847632,0.114413,6.242517,38.504246)"/>
</g>
</g>
</g>
</g>
</g>
<g clip-path="url(#clip6)" clip-rule="nonzero">
<g clip-path="url(#clip7)" clip-rule="nonzero">
<g clip-path="url(#clip8)" clip-rule="nonzero">
<g clip-path="url(#clip9)" clip-rule="nonzero">
<g clip-path="url(#clip10)" clip-rule="nonzero">
<path style="fill:none;stroke-width:4;stroke-linecap:butt;stroke-linejoin:miter;stroke:rgb(0%,0%,0%);stroke-opacity:1;stroke-miterlimit:10;" d="M 357.790812 16.999141 L 483.708343 17.006352 L 483.710774 120.695147 L 357.793242 120.687936 Z M 357.790812 16.999141 " transform="matrix(0.112482,-0.0862175,0.0847612,0.114414,6.173494,38.55913)"/>
</g>
</g>
</g>
</g>
</g>
<g clip-path="url(#clip11)" clip-rule="nonzero">
<g clip-path="url(#clip12)" clip-rule="nonzero">
<g clip-path="url(#clip13)" clip-rule="nonzero">
<g clip-path="url(#clip14)" clip-rule="nonzero">
<path style="fill:none;stroke-width:4;stroke-linecap:butt;stroke-linejoin:miter;stroke:rgb(0%,0%,0%);stroke-opacity:1;stroke-miterlimit:10;" d="M 483.479938 67.886538 C 483.492707 39.251268 455.268362 16.104105 420.4881 16.081003 C 385.713579 16.096368 357.503879 39.290539 357.50752 67.904033 C 357.472601 96.522612 385.719096 119.686466 420.515767 119.687793 C 455.273879 119.694203 483.483579 96.500032 483.479938 67.886538 Z M 483.479938 67.886538 " transform="matrix(0.112481,-0.0862195,0.0847632,0.114413,6.242517,38.504246)"/>
<path style=" stroke:none;fill-rule:nonzero;fill:rgb(100%,100%,100%);fill-opacity:1;" d="M 47.859375 9.65625 L 62.023438 -1.199219 L 70.8125 10.664062 L 56.648438 21.519531 Z M 47.859375 9.65625 "/>
<g clip-path="url(#clip15)" clip-rule="nonzero">
<path style="fill-rule:nonzero;fill:rgb(0%,0%,0%);fill-opacity:1;stroke-width:4;stroke-linecap:butt;stroke-linejoin:miter;stroke:rgb(0%,0%,0%);stroke-opacity:1;stroke-miterlimit:10;" d="M 483.479938 67.886538 C 483.492707 39.251268 455.268362 16.104105 420.4881 16.081003 C 385.713579 16.096368 357.503879 39.290539 357.50752 67.904033 C 357.472601 96.522612 385.719096 119.686466 420.515767 119.687793 C 455.273879 119.694203 483.483579 96.500032 483.479938 67.886538 Z M 483.479938 67.886538 " transform="matrix(0.112481,-0.0862195,0.0847632,0.114413,6.242517,38.504246)"/>
</g>
</g>
</g>
</g>
</g>
<g clip-path="url(#clip16)" clip-rule="nonzero">
<g clip-path="url(#clip17)" clip-rule="nonzero">
<g clip-path="url(#clip18)" clip-rule="nonzero">
<g clip-path="url(#clip19)" clip-rule="nonzero">
<g clip-path="url(#clip20)" clip-rule="nonzero">
<path style="fill:none;stroke-width:4;stroke-linecap:butt;stroke-linejoin:miter;stroke:rgb(0%,0%,0%);stroke-opacity:1;stroke-miterlimit:10;" d="M 357.790812 16.999141 L 483.708343 17.006352 L 483.710774 120.695147 L 357.793242 120.687936 Z M 357.790812 16.999141 " transform="matrix(0.112482,-0.0862175,0.0847612,0.114414,6.173494,38.55913)"/>
</g>
</g>
</g>
</g>
</g>
<g clip-path="url(#clip21)" clip-rule="nonzero">
<g clip-path="url(#clip22)" clip-rule="nonzero">
<g clip-path="url(#clip23)" clip-rule="nonzero">
<g clip-path="url(#clip24)" clip-rule="nonzero">
<path style="fill:none;stroke-width:4;stroke-linecap:butt;stroke-linejoin:miter;stroke:rgb(0%,0%,0%);stroke-opacity:1;stroke-miterlimit:10;" d="M 330.869521 -14.186227 L 510.690883 -14.184457 L 510.690243 150.890216 L 330.907441 150.883363 Z M 330.869521 -14.186227 " transform="matrix(0.112481,-0.0862195,0.0847632,0.114413,6.212634,38.54893)"/>
</g>
</g>
</g>
</g>
<g clip-path="url(#clip25)" clip-rule="nonzero">
<g clip-path="url(#clip26)" clip-rule="nonzero">
<g clip-path="url(#clip27)" clip-rule="nonzero">
<path style="fill:none;stroke-width:4;stroke-linecap:butt;stroke-linejoin:miter;stroke:rgb(0%,0%,0%);stroke-opacity:1;stroke-miterlimit:10;" d="M 483.479938 67.886538 C 483.492707 39.251268 455.268362 16.104105 420.4881 16.081003 C 385.713579 16.096368 357.503879 39.290539 357.50752 67.904033 C 357.472601 96.522612 385.719096 119.686466 420.515767 119.687793 C 455.273879 119.694203 483.483579 96.500032 483.479938 67.886538 Z M 483.479938 67.886538 " transform="matrix(0.112481,-0.0862195,0.0847632,0.114413,6.242517,38.504246)"/>
</g>
</g>
</g>
<g clip-path="url(#clip28)" clip-rule="nonzero">
<g clip-path="url(#clip29)" clip-rule="nonzero">
<g clip-path="url(#clip30)" clip-rule="nonzero">
<path style=" stroke:none;fill-rule:nonzero;fill:rgb(100%,100%,100%);fill-opacity:1;" d="M 55.339844 9.074219 L 56.742188 8.070312 L 58.476562 10.578125 C 58.773438 10.980469 59 11.414062 59.167969 11.886719 C 59.265625 12.242188 59.242188 12.628906 59.097656 12.972656 C 58.914062 13.402344 58.621094 13.761719 58.226562 14.019531 C 57.757812 14.347656 57.363281 14.535156 57.03125 14.589844 C 56.703125 14.648438 56.367188 14.589844 56.054688 14.449219 C 55.714844 14.273438 55.421875 14.03125 55.195312 13.71875 L 56.410156 12.570312 C 56.503906 12.726562 56.636719 12.871094 56.773438 12.988281 C 56.875 13.058594 56.988281 13.101562 57.113281 13.101562 C 57.210938 13.101562 57.3125 13.058594 57.382812 13 C 57.519531 12.914062 57.621094 12.746094 57.605469 12.570312 C 57.5625 12.328125 57.464844 12.085938 57.3125 11.898438 Z M 59.5625 10.664062 L 60.84375 9.636719 C 60.984375 9.804688 61.171875 9.933594 61.367188 10.003906 C 61.648438 10.097656 61.941406 10.035156 62.179688 9.847656 C 62.351562 9.734375 62.492188 9.574219 62.550781 9.375 C 62.632812 9.117188 62.492188 8.832031 62.238281 8.746094 C 62.199219 8.730469 62.15625 8.71875 62.113281 8.71875 C 61.941406 8.707031 61.648438 8.777344 61.210938 8.960938 C 60.496094 9.261719 59.929688 9.375 59.507812 9.335938 C 59.097656 9.292969 58.714844 9.074219 58.492188 8.71875 C 58.320312 8.476562 58.238281 8.183594 58.226562 7.902344 C 58.226562 7.574219 58.308594 7.242188 58.492188 6.96875 C 58.761719 6.582031 59.085938 6.257812 59.480469 5.996094 C 60.070312 5.578125 60.589844 5.378906 61.039062 5.378906 C 61.492188 5.378906 61.917969 5.597656 62.3125 6.039062 L 61.039062 7.054688 C 60.789062 6.726562 60.308594 6.65625 59.988281 6.914062 L 59.945312 6.957031 C 59.800781 7.042969 59.707031 7.167969 59.648438 7.328125 C 59.605469 7.441406 59.636719 7.574219 59.707031 7.671875 C 59.761719 7.742188 59.84375 7.796875 59.945312 7.796875 C 60.054688 7.816406 60.25 7.757812 60.539062 7.628906 C 61.234375 7.328125 61.773438 7.15625 62.136719 7.097656 C 62.449219 7.042969 62.773438 7.074219 63.070312 7.199219 C 63.339844 7.316406 63.558594 7.515625 63.714844 7.757812 C 63.914062 8.046875 64.027344 8.390625 64.042969 8.746094 C 64.054688 9.117188 63.953125 9.480469 63.757812 9.792969 C 63.507812 10.179688 63.183594 10.507812 62.800781 10.765625 C 62.023438 11.3125 61.390625 11.542969 60.890625 11.457031 C 60.339844 11.367188 59.886719 11.082031 59.5625 10.664062 Z M 59.5625 10.664062 "/>
</g>
</g>
</g>
</g>
</svg>
